<?xml version="1.0" encoding="UTF-8" standalone="no"?>
<!-- Created with Inkscape (http://www.inkscape.org/) -->
<svg
   xmlns:svg="http://www.w3.org/2000/svg"
   xmlns="http://www.w3.org/2000/svg"
   version="1.0"
   width="978.87396"
   height="439.86612"
   id="svg2560"
   xml:space="preserve"><defs
     id="defs2563"><clipPath
       id="clipPath2575"><path
         d="M 0,-597 C 0,-597 841.88965,-597 841.88965,-597 C 841.88965,-597 841.88965,-1.72363 841.88965,-1.72363 C 841.88965,-1.72363 0,-1.72363 0,-1.72363 C 0,-1.72363 0,-597 0,-597 z"
         id="path2577" /></clipPath><clipPath
       id="clipPath2585"><path
         d="M 43.52588,-3.06348 C 43.52588,-3.06348 803.35645,-3.06348 803.35645,-3.06348 C 803.35645,-3.06348 803.35645,-571.33984 803.35645,-571.33984 C 803.35645,-571.33984 43.52588,-571.33984 43.52588,-571.33984 C 43.52588,-571.33984 43.52588,-3.06348 43.52588,-3.06348 z"
         id="path2587" /></clipPath><clipPath
       id="clipPath2593"><path
         d="M 43.52588,-3.06348 C 43.52588,-3.06348 803.35645,-3.06348 803.35645,-3.06348 C 803.35645,-3.06348 803.35645,-571.33984 803.35645,-571.33984 C 803.35645,-571.33984 43.52588,-571.33984 43.52588,-571.33984 C 43.52588,-571.33984 43.52588,-3.06348 43.52588,-3.06348 z"
         id="path2595" /></clipPath><clipPath
       id="clipPath2601"><path
         d="M 43.52588,-3.06348 C 43.52588,-3.06348 803.35645,-3.06348 803.35645,-3.06348 C 803.35645,-3.06348 803.35645,-571.33984 803.35645,-571.33984 C 803.35645,-571.33984 43.52588,-571.33984 43.52588,-571.33984 C 43.52588,-571.33984 43.52588,-3.06348 43.52588,-3.06348 z"
         id="path2603" /></clipPath><clipPath
       id="clipPath2659"><path
         d="M 316.5,-404.62695 C 316.5,-404.62695 524.20996,-404.62695 524.20996,-404.62695 C 524.20996,-404.62695 524.20996,-194.09766 524.20996,-194.09766 C 524.20996,-194.09766 316.5,-194.09766 316.5,-194.09766 C 316.5,-194.09766 316.5,-404.62695 316.5,-404.62695 z"
         id="path2661" /></clipPath><clipPath
       id="clipPath2667"><path
         d="M 315.4917,-193.11914 C 315.4917,-193.11914 525.24609,-193.11914 525.24609,-193.11914 C 525.24609,-193.11914 525.24609,-403.50879 525.24609,-403.50879 C 525.24609,-403.50879 315.4917,-403.50879 315.4917,-403.50879 C 315.4917,-403.50879 315.4917,-193.11914 315.4917,-193.11914 z"
         id="path2669" /></clipPath><clipPath
       id="clipPath2675"><path
         d="M 315.4917,-193.11914 C 315.4917,-193.11914 525.24512,-193.11914 525.24512,-193.11914 C 525.24512,-193.11914 525.24512,-403.50879 525.24512,-403.50879 C 525.24512,-403.50879 315.4917,-403.50879 315.4917,-403.50879 C 315.4917,-403.50879 315.4917,-193.11914 315.4917,-193.11914 z"
         id="path2677" /></clipPath><clipPath
       id="clipPath2683"><path
         d="M 315.4917,-193.11914 C 315.4917,-193.11914 525.24512,-193.11914 525.24512,-193.11914 C 525.24512,-193.11914 525.24512,-403.50879 525.24512,-403.50879 C 525.24512,-403.50879 315.4917,-403.50879 315.4917,-403.50879 C 315.4917,-403.50879 315.4917,-193.11914 315.4917,-193.11914 z"
         id="path2685" /></clipPath></defs><g
     transform="matrix(1.25,0,0,-1.25,-1.4811111,746.43276)"
     id="g2569"><g
       transform="matrix(5.7755783,0,0,5.7755783,-2034.5568,59.085011)"
       id="g2720"><path
         d="M 376.76416,59.3125 C 376.46924,60.50781 376.18799,61.69141 375.93115,62.87305 C 375.46191,65.02637 375.08008,67.16211 374.90283,69.29492 C 374.854,69.89258 374.83105,70.45898 374.80615,71.02637 C 374.76807,71.92969 374.75293,72.80469 374.77002,73.63379 C 374.7998,75.10938 374.90625,76.47168 375.06201,77.70215 C 375.27002,79.31152 375.60498,80.67578 375.85791,81.84375 C 375.60107,81.64063 375.34424,81.44531 375.08691,81.26172 C 374.79492,80.39453 374.44287,79.19238 374.11621,77.68164 C 373.89209,76.66113 373.68604,75.49219 373.51904,74.20898 C 372.31689,74.71875 371.14404,75.32715 370.0708,76.05176 C 370.0708,76.05176 370.10303,74.38086 370.10303,74.38086 C 371.11279,73.54102 372.19482,72.77832 373.30225,72.09863 C 373.14795,70.19531 373.1001,68.08398 373.23389,65.77246 C 373.27686,65.04688 373.33887,64.32715 373.41016,63.61035 C 371.09424,64.25195 368.64893,65.22559 366.57227,66.62988 C 366.57227,66.62988 366.60498,64.95703 366.60498,64.95703 C 368.81396,63.12207 371.35303,61.63965 373.77686,60.625 C 374.11914,58.21484 374.55225,55.82715 374.9502,53.40527 C 371.78809,53.83008 367.5249,54.98242 364.20801,57.22852 C 364.20801,57.22852 364.24023,55.55469 364.24023,55.55469 C 367.75098,52.63672 372.09619,50.61816 375.48193,49.93848 C 376.17383,44.90527 376.46289,39.60742 375.23193,33.52637 C 375.23193,33.52637 379.17822,35.83887 379.17822,35.83887 C 380.70605,44.45801 378.55615,52.04883 376.76416,59.3125"
         id="path2631"
         style="fill:#d40000;fill-opacity:1;fill-rule:nonzero;stroke:none" /><path
         d="M 385.43994,82.358345 C 383.06982,82.870065 379.48193,84.111275 376.11719,86.900335 C 376.11719,86.900335 375.92383,87.144475 375.92383,87.144475 C 375.92383,87.144475 375.729,86.900335 375.729,86.900335 C 372.36523,84.111275 368.83691,82.919865 366.4668,82.408145 C 366.4668,82.408145 366.25488,82.363225 366.25488,82.363225 C 366.25488,82.363225 366.229,82.150335 366.229,82.150335 C 365.34717,75.715765 362.18018,72.041935 359.6792,70.093695 C 359.6792,70.093695 359.52783,69.977485 359.52783,69.977485 C 359.52783,69.977485 359.56494,69.789005 359.56494,69.789005 C 359.87891,68.248965 360.0249,67.072205 360.0249,66.088815 C 360.0249,62.910095 359.19727,59.941345 357.56006,57.269475 C 357.56006,57.269475 357.46191,57.115175 357.46191,57.115175 C 357.46191,57.115175 357.55518,56.955995 357.55518,56.955995 C 357.32324,51.921814 368.46484,45.484314 372.32617,45.334904 C 372.40186,44.348574 372.4248,45.526314 372.4248,44.948184 C 372.4248,44.741154 372.42285,44.591744 372.41992,44.461854 C 367.3418,44.554634 357.73096,49.537054 354.44385,56.502875 C 354.44385,56.502875 354.18604,57.050725 354.08203,57.271425 C 354.22314,57.471625 354.57422,57.965765 354.57422,57.965765 C 355.73389,59.598575 357.11621,62.331975 357.11621,66.088815 C 357.11621,67.239205 356.91797,68.605415 356.50977,70.265565 C 356.50977,70.265565 356.33496,70.971625 356.26416,71.257755 C 356.50977,71.422795 357.11719,71.826115 357.11719,71.826115 C 359.27295,73.260685 362.97217,76.713815 363.51611,83.719675 C 363.51611,83.719675 363.58008,84.540955 363.60596,84.875925 C 363.93604,84.923775 364.75195,85.045845 364.75195,85.045845 C 366.96094,85.378845 371.22314,86.471625 374.91992,90.050725 C 374.91992,90.050725 375.61182,90.723575 375.91602,91.017525 C 376.22314,90.723575 376.91504,90.050725 376.91504,90.050725 C 380.61182,86.471625 384.87207,85.378845 387.08203,85.045845 C 387.08203,85.045845 387.89893,84.923775 388.22656,84.875925 C 388.23047,84.540955 388.23438,83.716745 388.23438,83.716745 C 388.27734,78.462835 390.5957,76.321235 391.49805,75.681585 C 391.2002,75.423775 390.85742,75.124945 390.69141,74.980415 C 388.45508,75.870065 385.79883,77.859315 385.43994,82.358345"
         id="path2633"
         style="fill:#d40000;fill-opacity:1;fill-rule:nonzero;stroke:none" /><path
         d="M 393.27734,55.76953 C 392.73438,55.2959 391.81836,54.75195 390.39453,54.75195 C 388.69824,54.75195 387.78223,55.66797 387.78223,56.99121 C 387.78223,58.34863 388.76563,59.09375 390.9707,59.16211 C 390.9707,59.16211 393.27734,59.23047 393.27734,59.23047 C 393.27734,59.23047 393.27734,55.76953 393.27734,55.76953 z M 397.7207,51.86816 C 397.48438,52.61426 397.41797,53.80176 397.41797,56.1084 C 397.41797,56.1084 397.41797,62.45313 397.41797,62.45313 C 397.41797,66.66016 395.00684,68.28906 391.03809,68.28906 C 388.90234,68.28906 386.8999,67.94922 384.76221,66.52441 C 384.76221,66.52441 386.08594,63.97949 386.08594,63.97949 C 387.10303,64.59082 388.46094,65.16797 390.22461,65.16797 C 391.92188,65.16797 393.27734,64.38672 393.27734,62.45313 C 393.27734,62.35254 393.27734,62.18164 393.27734,62.0459 C 393.27734,62.0459 390.42773,61.94434 390.42773,61.94434 C 386.32324,61.80859 383.70996,60.00977 383.70996,56.68555 C 383.70996,53.53125 386.01807,51.52832 388.9707,51.52832 C 391.10547,51.52832 392.56445,52.34375 393.61719,53.29395 C 393.61719,53.29395 394.2959,51.86816 394.2959,51.86816 C 394.2959,51.86816 397.7207,51.86816 397.7207,51.86816"
         id="path2635"
         style="fill:#000000;fill-opacity:1;fill-rule:nonzero;stroke:none" /><path
         d="M 407.73047,51.52832 C 402.50488,51.52832 399.82617,55.2959 399.82617,59.80664 C 399.82617,64.69141 403.35352,68.28906 408.13672,68.28906 C 410.30859,68.28906 411.80078,67.74609 412.7168,67.16895 C 412.7168,67.16895 412.64844,63.84375 412.64844,63.84375 C 411.52734,64.69141 410.27344,65.16797 408.61133,65.16797 C 405.86328,65.16797 403.89648,62.99707 403.89648,60.00977 C 403.89648,57.26172 405.38867,54.81934 408.5791,54.81934 C 410.10547,54.81934 411.25781,55.2959 412.37695,55.93945 C 412.37695,55.93945 413.39453,53.25977 413.39453,53.25977 C 412.10547,52.37793 409.93555,51.52832 407.73047,51.52832"
         id="path2637"
         style="fill:#000000;fill-opacity:1;fill-rule:nonzero;stroke:none" /><path
         d="M 422.18164,51.52832 C 416.95703,51.52832 414.27734,55.2959 414.27734,59.80664 C 414.27734,64.69141 417.80469,68.28906 422.58789,68.28906 C 424.75977,68.28906 426.25293,67.74609 427.16895,67.16895 C 427.16895,67.16895 427.10059,63.84375 427.10059,63.84375 C 425.98145,64.69141 424.72656,65.16797 423.06445,65.16797 C 420.31641,65.16797 418.34766,62.99707 418.34766,60.00977 C 418.34766,57.26172 419.84082,54.81934 423.03027,54.81934 C 424.55566,54.81934 425.71094,55.2959 426.83008,55.93945 C 426.83008,55.93945 427.84668,53.25977 427.84668,53.25977 C 426.55762,52.37793 424.38672,51.52832 422.18164,51.52832"
         id="path2639"
         style="fill:#000000;fill-opacity:1;fill-rule:nonzero;stroke:none" /><path
         d="M 432.37012,70.39063 C 430.97949,70.39063 429.86035,71.47656 429.86035,72.86914 C 429.86035,74.19141 430.97949,75.31055 432.37012,75.31055 C 433.79492,75.31055 434.91504,74.22461 434.91504,72.86914 C 434.91504,71.51172 433.79492,70.39063 432.37012,70.39063 z M 430.33496,51.86816 C 430.33496,51.86816 434.40625,51.86816 434.40625,51.86816 C 434.40625,51.86816 434.40625,67.91504 434.40625,67.91504 C 434.40625,67.91504 430.33496,67.91504 430.33496,67.91504 C 430.33496,67.91504 430.33496,51.86816 430.33496,51.86816 z"
         id="path2641"
         style="fill:#000000;fill-opacity:1;fill-rule:nonzero;stroke:none" /><path
         d="M 448.7793,59.9082 C 448.7793,56.88965 447.48926,54.68457 444.94531,54.68457 C 442.46875,54.68457 441.00879,56.78711 441.00879,59.9082 C 441.00879,62.89355 442.26563,65.06445 444.84375,65.06445 C 447.35449,65.06445 448.7793,62.99707 448.7793,59.9082 z M 452.95215,59.94141 C 452.95215,62.38574 452.20605,64.4873 450.81543,65.98145 C 449.38965,67.43945 447.3877,68.28906 444.91211,68.28906 C 442.57129,68.28906 440.6377,67.43945 439.21191,66.01563 C 437.71973,64.4873 436.87207,62.31641 436.87207,59.80664 C 436.87207,57.22852 437.75391,55.02246 439.34766,53.53125 C 440.73926,52.24219 442.63965,51.52832 444.87891,51.52832 C 447.28711,51.52832 449.25391,52.37793 450.67871,53.83691 C 452.17188,55.32813 452.95215,57.49902 452.95215,59.94141"
         id="path2643"
         style="fill:#000000;fill-opacity:1;fill-rule:nonzero;stroke:none" /><path
         d="M 465.87793,51.86816 C 465.87793,51.86816 465.87793,61.2998 465.87793,61.2998 C 465.87793,62.96191 465.57227,64.79395 463.50195,64.79395 C 462.0791,64.79395 460.6875,64.04785 459.43164,63.09668 C 459.43164,63.09668 459.43164,51.86816 459.43164,51.86816 C 459.43164,51.86816 455.36133,51.86816 455.36133,51.86816 C 455.36133,51.86816 455.36133,67.91504 455.36133,67.91504 C 455.36133,67.91504 458.82129,67.91504 458.82129,67.91504 C 458.82129,67.91504 459.26172,66.18457 459.26172,66.18457 C 460.99219,67.47363 462.72168,68.28906 464.89453,68.28906 C 467.33594,68.28906 469.94824,66.8291 469.94824,62.52051 C 469.94824,62.52051 469.94824,51.86816 469.94824,51.86816 C 469.94824,51.86816 465.87793,51.86816 465.87793,51.86816"
         id="path2645"
         style="fill:#000000;fill-opacity:1;fill-rule:nonzero;stroke:none" /><path
         d="M 481.78809,55.76953 C 481.24512,55.2959 480.33008,54.75195 478.9043,54.75195 C 477.20801,54.75195 476.29297,55.66797 476.29297,56.99121 C 476.29297,58.34863 477.27637,59.09375 479.48145,59.16211 C 479.48145,59.16211 481.78809,59.23047 481.78809,59.23047 C 481.78809,59.23047 481.78809,55.76953 481.78809,55.76953 z M 486.23242,51.86816 C 485.99414,52.61426 485.92676,53.80176 485.92676,56.1084 C 485.92676,56.1084 485.92676,62.45313 485.92676,62.45313 C 485.92676,66.66016 483.5166,68.28906 479.54883,68.28906 C 477.41016,68.28906 475.40918,67.94922 473.27344,66.52441 C 473.27344,66.52441 474.5957,63.97949 474.5957,63.97949 C 475.61426,64.59082 476.9707,65.16797 478.73633,65.16797 C 480.43066,65.16797 481.78809,64.38672 481.78809,62.45313 C 481.78809,62.35254 481.78809,62.18164 481.78809,62.0459 C 481.78809,62.0459 478.93848,61.94434 478.93848,61.94434 C 474.83301,61.80859 472.2207,60.00977 472.2207,56.68555 C 472.2207,53.53125 474.52832,51.52832 477.47949,51.52832 C 479.61719,51.52832 481.07617,52.34375 482.12695,53.29395 C 482.12695,53.29395 482.80566,51.86816 482.80566,51.86816 C 482.80566,51.86816 486.23242,51.86816 486.23242,51.86816"
         id="path2647"
         style="fill:#000000;fill-opacity:1;fill-rule:nonzero;stroke:none" /></g></g></svg>